<?xml version="1.0"?>
<svg xmlns="http://www.w3.org/2000/svg" viewBox="0 0 64 64" width="512" height="512"><g id="Outline"><g><path d="M53,33.928a1,1,0,0,0-1,1V60H50V41.856a1,1,0,1,0-2,0V60H8V52a1,1,0,0,0-2,0v2.816A2.995,2.995,0,1,1,10,52a1,1,0,0,0,2,0,5.009,5.009,0,0,0-4-4.9V41.184A3,3,0,0,1,10,44a1,1,0,0,0,2,0,5.009,5.009,0,0,0-4-4.9V33.184A3,3,0,0,1,10,36a1,1,0,0,0,2,0,5.009,5.009,0,0,0-4-4.9V25.184A3,3,0,0,1,10,28a1,1,0,0,0,2,0,5.009,5.009,0,0,0-4-4.9V17.184A3,3,0,0,1,10,20a1,1,0,0,0,2,0,5.009,5.009,0,0,0-4-4.9V12a1,1,0,0,0-2,0v2.816A2.995,2.995,0,1,1,10,12a1,1,0,0,0,2,0A5.009,5.009,0,0,0,8,7.1V4H48v7.856a1,1,0,1,0,2,0V6h2a1,1,0,0,0,2-.072V5a1,1,0,0,0-1-1H50V3a1,1,0,0,0-1-1H7A1,1,0,0,0,6,3V7.1A4.983,4.983,0,0,0,4.031,16a4.954,4.954,0,0,0,0,8,4.954,4.954,0,0,0,0,8,4.954,4.954,0,0,0,0,8,4.954,4.954,0,0,0,0,8A4.983,4.983,0,0,0,6,56.9V61a1,1,0,0,0,1,1H53a1,1,0,0,0,1-1V34.928A1,1,0,0,0,53,33.928ZM6,17.184v5.632a2.982,2.982,0,0,1,0-5.632Zm0,8v5.632a2.982,2.982,0,0,1,0-5.632Zm0,8v5.632a2.982,2.982,0,0,1,0-5.632Zm0,8v5.632a2.982,2.982,0,0,1,0-5.632Z"/><path d="M33,57h4a5.006,5.006,0,0,0,5-5V50a1,1,0,0,0-2,0v2a3,3,0,0,1-3,3H33a1,1,0,0,0,0,2Z"/><path d="M16,42a1,1,0,0,0,2,0V38a2,2,0,0,1,2-2,1,1,0,0,0,0-2,4,4,0,0,0-4,4Z"/><path d="M17,58H27a1,1,0,0,0,.707-.293l4-4A1,1,0,0,0,32,53V43h-.009A.973.973,0,0,0,31,42H21a1,1,0,0,0-.707.293l-4,4A1,1,0,0,0,17,48h9v8H18V51a1,1,0,0,0-2,0v6A1,1,0,0,0,17,58Zm11-3.414V47.414l2-2v7.172ZM19.414,46l2-2h7.172l-2,2Z"/><path d="M37,19a8.99,8.99,0,0,0-1.253-4.566,1,1,0,0,0-1.722,1.017,6.974,6.974,0,0,1-1.651,9.009,1,1,0,0,0-.374.78V26h-.883l.877-7.89a1,1,0,0,0-1.31-1.059l-2.684.9-2.684-.9a1,1,0,0,0-1.31,1.059L24.883,26H24v-.76a1,1,0,0,0-.374-.78,6.993,6.993,0,0,1,7.923-11.485,1,1,0,1,0,1.017-1.723A8.994,8.994,0,0,0,22,25.7v.481a2.982,2.982,0,0,0,0,5.632V32a6,6,0,0,0,12,0v-.184a2.982,2.982,0,0,0,0-5.632V25.7A8.953,8.953,0,0,0,37,19Zm-10.833.443,1.517.506a1,1,0,0,0,.632,0l1.517-.506L29.105,26H26.9ZM28,36a4,4,0,0,1-4-4h8A4,4,0,0,1,28,36Zm5-6H23a1,1,0,0,1,0-2H33a1,1,0,0,1,0,2Z"/><circle cx="16" cy="19" r="1"/><circle cx="40" cy="19" r="1"/><circle cx="28" cy="7" r="1"/><path d="M18.108,12.134a1,1,0,1,0,.366,1.366A1,1,0,0,0,18.108,12.134Z"/><path d="M37.892,25.866a1,1,0,1,0-.366-1.366A1,1,0,0,0,37.892,25.866Z"/><circle cx="34" cy="8.608" r="1" transform="matrix(0.966, -0.259, 0.259, 0.966, -1.069, 9.093)"/><path d="M38.892,13.866a1,1,0,1,0-1.366-.366A1,1,0,0,0,38.892,13.866Z"/><path d="M18.108,25.866a1,1,0,1,0-1.366-.366A1,1,0,0,0,18.108,25.866Z"/><path d="M22.5,9.474a1,1,0,1,0-1.366-.366A1,1,0,0,0,22.5,9.474Z"/><path d="M59.5,8.67a5.006,5.006,0,0,0-6.831,1.83l-1,1.733-2,3.464-12.5,21.651c-.007.012-.006.025-.013.038a1.008,1.008,0,0,0-.111.319l0,.018v0l-.612,4.243h0l-.921,6.4a1,1,0,0,0,1.608.928l3.627-2.854,4.826-3.8,0,0,.009-.007a1,1,0,0,0,.221-.255c.007-.011.02-.018.027-.03l8.5-14.723a1,1,0,0,0-1.733-1l-8,13.856-1.731-1,11.5-19.919,1.731,1-1.5,2.6a1,1,0,0,0,1.733,1l2-3.464,2-3.464,1-1.733A5.007,5.007,0,0,0,59.5,8.67Zm-1,1.733a3,3,0,0,1,1.1,4.1l-.5.867-5.2-3,.5-.867A3,3,0,0,1,58.5,10.4Zm-.4,6.7-1,1.732-2.6-1.5h0l-2.6-1.5,1-1.732,2.6,1.5Zm-7.2.464,1.732,1-11.5,19.919-1.732-1Zm-9.41,25.744-2.984-1.723.307-2.132,4.37,2.523Zm-3.645,2.869.354-2.46,1.6.923Z"/></g></g></svg>
